<svg xmlns="http://www.w3.org/2000/svg" xmlns:xlink="http://www.w3.org/1999/xlink" viewBox="0 0 500 500"><defs><clipPath id="freepik--clip-path--inject-53"><rect x="63.37" y="76.33" width="204.75" height="147.88" style="fill:#fff;stroke:#263238;stroke-linecap:round;stroke-linejoin:round"></rect></clipPath></defs><g id="freepik--Character--inject-53"><path d="M310.32,205.61s-12.09,74-12.09,79.65a22.63,22.63,0,0,1-2.83,10.41l-14.19,19.86,18,5.36L309,309.54s4.52-103.93,4.84-104.88S311.58,201.51,310.32,205.61Z" style="fill:#407BFF;stroke:#263238;stroke-linecap:round;stroke-linejoin:round"></path><path d="M402.82,449.12c1.32-12.92,2.85-26.56,3.89-32.05,2.2-11.67,6-35.63,6-35.63l-11.35-40.68-51.09-.32s-15.13.95-23.33,0a129,129,0,0,0-13.25-.94s-9.46,32.79-1.89,79.14c3,18.68,5.79,31.82,8,40.86C346.44,454.19,376.41,455.2,402.82,449.12Z" style="fill:#263238;stroke:#263238;stroke-linecap:round;stroke-linejoin:round"></path><path d="M344.43,186.39s-33.59,14.3-33.59,16.5-5,52.73-5,60.61-2.21,64.33-1.89,71.9-3.9,43.17-3,43.8.67,6.54,7.92,5.28S315,341.39,315,341.39l5.67-35.95.32-23.33s0-24.91,2.52-38.79,10.09-32.79,10.72-33.74S344.43,186.39,344.43,186.39Z" style="fill:#407BFF;stroke:#263238;stroke-linecap:round;stroke-linejoin:round"></path><path d="M372.65,179s16.85,6.27,26.38,10.43c13.57,5.94,23.55,8.63,24.18,12.73S410.35,313,410.35,313l18.7,73.33S399.12,397.75,378,396.81,345,392,345,392l-1-49.63S340,312.51,348,267.85c6.74-37.66,19-86.33,19-86.33Z" style="fill:#407BFF;stroke:#263238;stroke-linecap:round;stroke-linejoin:round"></path><path d="M341.75,192.24s-8.52,8.83-12.93,17a99.46,99.46,0,0,0-6.62,15.13l4.73,1.89-10.41,12.93a80.79,80.79,0,0,0,.63,23c2.21,11.67,4.73,30.59,4.73,30.59s20.18.31,26.18-3.47,27.11-45.41,28.06-48.88-8.51-17.65-8.51-17.65l6.48-1.52,12.44-2.9s-4.1-26.8-6.63-33.74-1.26-7.88-6.93-10.09-29,16.71-29,16.71Z" style="fill:#407BFF;stroke:#263238;stroke-linecap:round;stroke-linejoin:round"></path><path d="M360.35,150.93s1.58,11.67,4.73,18.92a89.4,89.4,0,0,0,3.79,8.2s-10.41,33.42-16.08,64.64-9.46,61.81-9.46,77.26.63,22.39.63,22.39-3.47,1.89-12.62,1.26A61.52,61.52,0,0,1,315,340.13s7.88-68.11,8.19-84.51,16.72-60.23,16.72-60.23L337,186.25s9.46-11.35,11.67-19.87S355.94,150.3,360.35,150.93Z" style="fill:#fff;stroke:#263238;stroke-linecap:round;stroke-linejoin:round"></path><path d="M348.64,166.55C346.36,175,337,186.25,337,186.25l2.84,9.14s-.43,1.13-1.14,3.09c10.31-10.06,16.63-28,16.63-28Z" style="fill:#263238;stroke:#263238;stroke-linecap:round;stroke-linejoin:round"></path><path d="M357.33,221a82.82,82.82,0,0,1-26.51.94c-3.86,12.38-7.53,26-7.68,33.71-.31,16.4-8.19,84.51-8.19,84.51a61.52,61.52,0,0,0,16.39,3.47c9.15.63,12.62-1.26,12.62-1.26s-.63-6.94-.63-22.39,3.78-46,9.46-77.26C354.11,235.42,355.69,228,357.33,221Z" style="fill:#fff;stroke:#263238;stroke-linecap:round;stroke-linejoin:round"></path><line x1="338.47" y1="272.58" x2="340.46" y2="274.89" style="fill:none;stroke:#263238;stroke-linecap:round;stroke-linejoin:round"></line><line x1="325.34" y1="257.4" x2="336.93" y2="270.8" style="fill:none;stroke:#263238;stroke-linecap:round;stroke-linejoin:round"></line><line x1="330.54" y1="270.64" x2="339.52" y2="279.14" style="fill:none;stroke:#263238;stroke-linecap:round;stroke-linejoin:round"></line><path d="M303.49,138.8s-5.29,1.59-7.71-3.52,2.53-5.93,2.25-10.81-5.21-9.18-2.56-13.75S316,94.89,324.66,89.89s21.26-2.29,31.69,1,18.39,6.83,21.08,14.39,2.5,14.29,5.66,20,9,6.36,5.87,13-9,6-7.63,10.77,3.79,9.84.28,12.42-9.59-1-12.54,1.34-5,4-7.42,3.79-4-5.55-9.68-12.63S339.91,140.84,332,138.91s-15.08-5.12-19.78-4A29.8,29.8,0,0,0,303.49,138.8Z" style="fill:#263238;stroke:#263238;stroke-linecap:round;stroke-linejoin:round"></path><path d="M367.93,139.59c2.06,1.13,4.1,1.5,6.07.56" style="fill:none;stroke:gray;stroke-linecap:round;stroke-linejoin:round"></path><path d="M307,113.89s0,8.08,12.7,8.08,28-.86,34.05,4.33c3.5,3,7.48,8.21,11.5,11.47" style="fill:none;stroke:gray;stroke-linecap:round;stroke-linejoin:round"></path><path d="M342.18,110.54A17.61,17.61,0,0,1,355,115.33c8.08,7.8,13.27,17,19.34,17.32s8.36-.87,8.36-.87" style="fill:none;stroke:gray;stroke-linecap:round;stroke-linejoin:round"></path><path d="M335.61,111.58a19.17,19.17,0,0,1,3.15-.75" style="fill:none;stroke:gray;stroke-linecap:round;stroke-linejoin:round"></path><path d="M300.48,124.2s-2.65,12.11,2.56,21.29,5.85,8.18,7.33,17,5,13.2,12.19,19.36,11.44,6.36,15.76,3.86,18.79-14.41,19.55-18.91,1.86-9.77,1.86-9.77,3.57-3.12,3.95-4.16a15.83,15.83,0,0,0,.58-2.9s-4.93,3.24-8.67.42-2.12-7.78-8.55-10.63-15.13-2.17-17.8-4.88-.07-4.32-7-5.06S304.59,131.11,300.48,124.2Z" style="fill:#fff;stroke:#263238;stroke-linecap:round;stroke-linejoin:round"></path><path d="M314.17,149.65s4.06,2.33,4.25,5.58-3.22,9.89-1.47,11.16,6.42.42,6.42.42" style="fill:none;stroke:#263238;stroke-linecap:round;stroke-linejoin:round"></path><path d="M324.93,172.37s4.15,1.52,6.53-3.07" style="fill:none;stroke:#263238;stroke-linecap:round;stroke-linejoin:round"></path><path d="M319.48,143s2.53-3.5,9.48-3" style="fill:none;stroke:#263238;stroke-linecap:round;stroke-linejoin:round;stroke-width:2px"></path><path d="M311,146.62s-2.79-1.65-4.31,2.5" style="fill:none;stroke:#263238;stroke-linecap:round;stroke-linejoin:round;stroke-width:2px"></path><path d="M328.73,150.41c.69,1.56.7,3.06,0,3.36s-1.79-.72-2.48-2.27-.7-3.06,0-3.36S328,148.86,328.73,150.41Z" style="fill:#263238"></path><path d="M312.65,154.61c.69,1.55.7,3.06,0,3.36s-1.79-.72-2.48-2.28-.7-3.05,0-3.35S312,153.05,312.65,154.61Z" style="fill:#263238"></path><path d="M293.5,322.22s7.84,6.36,11.76,6,9.26-8,9.26-10.72-5.7-3-5.7-3l-6.06,2.68Z" style="fill:#fff;stroke:#263238;stroke-linecap:round;stroke-linejoin:round"></path><path d="M287.79,325.24s7.84,6.36,11.76,6,9.27-8,9.27-10.71-5.7-3-5.7-3l-6.06,2.68Z" style="fill:#fff;stroke:#263238;stroke-linecap:round;stroke-linejoin:round"></path><path d="M282.09,326.58s7.84,6.36,11.76,6,9.27-8,9.27-10.71-5.7-3-5.7-3l-6.06,2.68Z" style="fill:#fff;stroke:#263238;stroke-linecap:round;stroke-linejoin:round"></path><path d="M275.68,327.58s7.84,6.36,11.76,6,9.26-8,9.26-10.72-5.7-3-5.7-3l-6.06,2.68Z" style="fill:#fff;stroke:#263238;stroke-linecap:round;stroke-linejoin:round"></path><path d="M263.2,313.18s6.06,12.73,7.84,13.73,5,1,8.56,2.34,12.11-8,12.11-8Z" style="fill:#fff;stroke:#263238;stroke-linecap:round;stroke-linejoin:round"></path><polygon points="283.46 328.18 353.03 317.78 283.1 294.11 216.75 305.59 283.46 328.18" style="fill:#fff;stroke:#263238;stroke-linecap:round;stroke-linejoin:round"></polygon><polygon points="280.57 298.11 336.85 316.51 282.74 324.09 224.29 306.41 280.57 298.11" style="fill:#dbdbdb"></polygon><polygon points="216.75 305.59 283.46 328.18 263.01 273.67 197.75 252.51 216.75 305.59" style="fill:#fff;stroke:#263238;stroke-linecap:round;stroke-linejoin:round"></polygon><path d="M266.07,281.83a153.22,153.22,0,0,0-28.72,14,89.9,89.9,0,0,1-20.47,9.78l66.58,22.55Z" style="fill:#263238;stroke:#263238;stroke-linecap:round;stroke-linejoin:round"></path><ellipse cx="237.17" cy="283.57" rx="4.33" ry="5.33" transform="translate(-122.44 197.87) rotate(-36.69)" style="fill:#fff;stroke:#263238;stroke-linecap:round;stroke-linejoin:round"></ellipse><path d="M342.38,287.78s-10.69-.74-12.58-.11-22.3,8.09-24.83,10.61a103.34,103.34,0,0,0-10.61,14.22c-3.22,5.68-1.51,5.68-.57,5.68s2.87-1.39,4.13-3.59,6.94-7.89,6.94-7.89l4.38-2s-4.38,8-6.9,11.78-3.89,6-2.48,6.67c2.27,1.13,4.93-2.72,5.87-4s3.54-3.91,3.54-3.91-2.84,5.67-2.52,6.62,2.58,1.46,4.41-1.26c.79-1.17,9.19-11.25,9.19-11.25s-4.14,8.73-4.14,10,1.26,1.57,3.78,0,5.89-9.42,7.15-11,4.5-2,4.5-2,5.05-1.26,6.31-2.52,3.78-3.47,3.78-3.47l6.83,2.84-.5-13.85Z" style="fill:#fff;stroke:#263238;stroke-linecap:round;stroke-linejoin:round"></path><line x1="320.35" y1="309.33" x2="323.35" y2="303.67" style="fill:none;stroke:#263238;stroke-linecap:round;stroke-miterlimit:10"></line><line x1="309.27" y1="315.22" x2="317.78" y2="301.97" style="fill:none;stroke:#263238;stroke-linecap:round;stroke-linejoin:round"></line><line x1="309.06" y1="304.83" x2="311.9" y2="300.1" style="fill:none;stroke:#263238;stroke-linecap:round;stroke-linejoin:round"></line><path d="M396,231.66l2.2,55.81-57.07-1.26.31,24s40.68,6.62,60.86,6,32.17,1.26,33.74-1.26-10.28-101.4-10.28-101.4-1.9-15.77-5.05-16.71-22.82-7.07-22.82-7.07" style="fill:#407BFF;stroke:#263238;stroke-linecap:round;stroke-linejoin:round"></path><line x1="417.49" y1="288.02" x2="420.27" y2="288.1" style="fill:#fff;stroke:#263238;stroke-linecap:round;stroke-linejoin:round"></line><line x1="398.19" y1="287.47" x2="413.85" y2="287.92" style="fill:#fff;stroke:#263238;stroke-linecap:round;stroke-linejoin:round"></line><path d="M347.91,451.88c-3.75-16.84-7.74-38.48-7.74-54.36,0,0-4.15-1.57-13.46-12.26" style="fill:none;stroke:gray;stroke-linecap:round;stroke-linejoin:round"></path></g></svg>