<?xml version="1.0" encoding="utf-8"?>
<!-- Generator: Adobe Illustrator 19.0.0, SVG Export Plug-In . SVG Version: 6.00 Build 0)  -->
<svg version="1.1" id="Layer_1" xmlns="http://www.w3.org/2000/svg" xmlns:xlink="http://www.w3.org/1999/xlink" x="0px" y="0px"
	 viewBox="0 0 960 560" style="enable-background:new 0 0 960 560;" xml:space="preserve">
<style type="text/css">
	.st0{fill:none;stroke:#FFFFFF;stroke-width:4;stroke-miterlimit:10;}
	.st1{stroke:#FFFFFF;stroke-width:3;stroke-miterlimit:10;}
	.st2{fill:#FFFFFF;stroke:#FFFFFF;stroke-miterlimit:10;}
	.st3{fill:#FFFFFF;stroke:#FFFFFF;stroke-width:3;stroke-miterlimit:10;}
	.st4{fill:none;stroke:#FFFFFF;stroke-width:3;stroke-miterlimit:10;}
</style>
<path id="XMLID_5_" class="st0" d="M556.3,253.4"/>
<g id="XMLID_15_">
	<g id="XMLID_14_">
		<g id="XMLID_13_">
			<rect id="XMLID_2_" y="0.5" class="st1" width="960" height="559"/>
		</g>
		<g id="XMLID_1_">
			<path id="XMLID_17_" class="st2" d="M322.1,266.3h32.2v1.7h-1.6c-2.4,0-4.1,0.3-5,0.8c-0.9,0.5-1.5,1.2-1.9,2.1
				c-0.4,0.9-0.6,3.1-0.6,6.6v30.2c0,5.5,0.4,9.2,1.3,11c0.8,1.8,2.2,3.3,4.2,4.5c1.9,1.2,4.4,1.8,7.3,1.8c3.4,0,6.3-0.8,8.6-2.2
				c2.4-1.5,4.2-3.6,5.3-6.2c1.2-2.6,1.8-7.2,1.8-13.8v-25.1c0-2.8-0.3-4.7-0.9-5.9c-0.6-1.2-1.3-2-2.2-2.5c-1.4-0.7-3.3-1-5.8-1
				v-1.7h21.6v1.7h-1.3c-1.7,0-3.2,0.3-4.4,1c-1.2,0.7-2,1.7-2.5,3.1c-0.4,1-0.6,2.7-0.6,5.2v23.4c0,7.2-0.5,12.5-1.4,15.7
				c-1,3.2-3.3,6.2-7.1,8.9c-3.7,2.7-8.9,4-15.3,4c-5.4,0-9.6-0.7-12.5-2.1c-4-1.9-6.9-4.4-8.5-7.5c-1.7-3-2.5-7.1-2.5-12.2v-30.2
				c0-3.5-0.2-5.7-0.6-6.6c-0.4-0.9-1.1-1.6-2.1-2.1c-1-0.5-2.8-0.8-5.4-0.7V266.3z"/>
			<path id="XMLID_19_" class="st2" d="M408.2,269.9v15.5h10.2v4.5h-10.2v26.2c0,2.5,0.1,4,0.3,4.7c0.2,0.7,0.6,1.3,1.2,1.7
				c0.6,0.4,1.1,0.7,1.6,0.7c2,0,3.9-1.5,5.7-4.5l1.4,1c-2.5,5.8-6.5,8.7-12.1,8.7c-2.7,0-5-0.8-6.9-2.2s-3.1-3.2-3.6-5
				c-0.3-1-0.5-3.8-0.5-8.4v-22.9h-5.6v-1.6c3.9-2.7,7.2-5.5,9.9-8.5c2.7-3,5.1-6.3,7.1-10H408.2z"/>
			<path id="XMLID_21_" class="st2" d="M442.8,284.2c3.7,0,7.2,1,10.4,2.9c3.2,1.9,5.7,4.6,7.3,8.1c1.7,3.5,2.5,7.4,2.5,11.5
				c0,6-1.5,11.1-4.6,15.1c-3.7,4.9-8.9,7.4-15.5,7.4c-6.5,0-11.5-2.2-15-6.7c-3.5-4.5-5.2-9.7-5.2-15.6c0-6.1,1.8-11.4,5.4-15.9
				C431.7,286.4,436.6,284.2,442.8,284.2z M443,287.4c-1.6,0-2.9,0.6-4,1.7c-1.1,1.2-1.9,3.5-2.2,6.9c-0.4,3.4-0.5,8.2-0.5,14.3
				c0,3.2,0.2,6.3,0.6,9.1c0.3,2.2,1.1,3.8,2.2,4.9c1.1,1.1,2.4,1.7,3.8,1.7c1.4,0,2.5-0.4,3.5-1.1c1.2-1,2-2.5,2.4-4.3
				c0.6-2.9,0.9-8.7,0.9-17.4c0-5.1-0.3-8.7-0.9-10.6c-0.6-1.9-1.4-3.3-2.6-4.2C445.3,287.7,444.3,287.4,443,287.4z"/>
			<path id="XMLID_24_" class="st2" d="M486.3,323.6v15.8c0,2.2,0.2,3.7,0.5,4.5c0.4,0.8,0.9,1.4,1.6,1.7s2.2,0.5,4.3,0.5v1.7h-24.5
				v-1.7c1.9-0.1,3.3-0.6,4.2-1.6c0.6-0.7,0.9-2.5,0.9-5.4v-44.8c0-3-0.4-4.9-1.1-5.7c-0.7-0.8-2.1-1.3-4.1-1.4v-1.7h18v5.6
				c1.5-2.2,3-3.8,4.6-4.7c2.2-1.4,4.7-2.1,7.3-2.1c3.2,0,6,1,8.6,3c2.6,2,4.6,4.7,5.9,8.2c1.3,3.5,2,7.2,2,11.2
				c0,4.3-0.7,8.2-2.1,11.8c-1.4,3.6-3.4,6.3-6.1,8.1c-2.7,1.9-5.6,2.8-8.9,2.8c-2.4,0-4.6-0.5-6.6-1.5
				C489.6,326.9,488,325.5,486.3,323.6z M486.3,319c2.6,3.7,5.5,5.5,8.5,5.5c1.7,0,3-0.9,4.1-2.6c1.6-2.5,2.4-7.4,2.4-14.5
				c0-7.3-0.9-12.3-2.6-15c-1.2-1.8-2.7-2.7-4.7-2.7c-3.1,0-5.6,2.2-7.6,6.6V319z"/>
			<path id="XMLID_27_" class="st2" d="M538.9,285.4v33.7c0,3,0.4,4.9,1.1,5.7c0.7,0.8,2.1,1.3,4.1,1.4v1.6h-23.2v-1.6
				c1.9-0.1,3.3-0.6,4.2-1.6c0.6-0.7,0.9-2.5,0.9-5.5v-24.8c0-3-0.4-4.9-1.1-5.7c-0.7-0.8-2.1-1.3-4.1-1.4v-1.7H538.9z M532.4,264.8
				c2,0,3.7,0.7,5.1,2.1c1.4,1.4,2.1,3,2.1,5c0,1.9-0.7,3.6-2.1,5c-1.4,1.4-3.1,2-5,2c-2,0-3.6-0.7-5-2c-1.4-1.4-2.1-3-2.1-5
				c0-1.9,0.7-3.6,2.1-5C528.8,265.5,530.5,264.8,532.4,264.8z"/>
			<path id="XMLID_30_" class="st2" d="M572,321.6c-5.2,4.6-10,6.9-14.1,6.9c-2.5,0-4.5-0.8-6.1-2.4c-1.6-1.6-2.4-3.6-2.4-6
				c0-3.2,1.4-6.2,4.2-8.7c2.8-2.6,9-6,18.5-10.3v-4.3c0-3.2-0.2-5.2-0.5-6.1c-0.4-0.8-1-1.6-2-2.2c-1-0.6-2.1-0.9-3.3-0.9
				c-2,0-3.6,0.4-4.9,1.3c-0.8,0.5-1.2,1.2-1.2,1.9c0,0.6,0.4,1.4,1.3,2.4c1.2,1.3,1.7,2.6,1.7,3.8c0,1.5-0.6,2.7-1.7,3.8
				c-1.1,1-2.6,1.6-4.4,1.6c-1.9,0-3.6-0.6-4.9-1.7c-1.3-1.2-2-2.5-2-4c0-2.2,0.9-4.3,2.6-6.2s4.2-3.5,7.3-4.6
				c3.1-1.1,6.4-1.6,9.8-1.6c4.1,0,7.3,0.9,9.7,2.6c2.4,1.7,3.9,3.6,4.6,5.6c0.4,1.3,0.6,4.2,0.6,8.8v16.5c0,1.9,0.1,3.2,0.2,3.7
				c0.2,0.5,0.4,0.9,0.7,1.1s0.7,0.4,1.1,0.4c0.8,0,1.6-0.6,2.4-1.7l1.4,1.1c-1.5,2.2-3.1,3.9-4.8,4.9c-1.6,1-3.5,1.5-5.6,1.5
				c-2.5,0-4.4-0.6-5.8-1.7C573.1,325.7,572.3,323.9,572,321.6z M572,318.3v-14.2c-3.7,2.2-6.5,4.5-8.3,6.9c-1.2,1.6-1.8,3.3-1.8,5
				c0,1.4,0.5,2.6,1.5,3.7c0.8,0.8,1.8,1.2,3.2,1.2C568.2,320.9,570,320,572,318.3z"/>
		</g>
	</g>
	<g id="XMLID_12_">
		<polygon id="XMLID_4_" class="st3" points="500.4,270.6 503.7,266.8 507,270.6 		"/>
		<g id="XMLID_11_">
			<g id="XMLID_9_">
				<polygon id="XMLID_8_" class="st0" points="461.5,196.9 413.8,226.6 461.5,256.3 509.2,226.6 				"/>
			</g>
			<g id="XMLID_10_">
				<polyline id="XMLID_7_" class="st0" points="496.6,242.1 496.6,255.6 461.5,277.1 461.5,277.1 426.6,255.6 426.6,242.1 				"/>
			</g>
			<line id="XMLID_6_" class="st4" x1="504.1" y1="268.1" x2="504.1" y2="231.1"/>
			<line id="XMLID_3_" class="st4" x1="465.6" y1="226.6" x2="502.2" y2="231"/>
		</g>
	</g>
</g>
<g id="XMLID_16_">
</g>
<g id="XMLID_33_">
</g>
<g id="XMLID_34_">
</g>
<g id="XMLID_35_">
</g>
<g id="XMLID_36_">
</g>
</svg>
